<svg xmlns="http://www.w3.org/2000/svg" width="20" height="25" viewBox="0 0 20 25">
    <g fill="#FFF" fill-rule="evenodd">
        <path d="M9.637 1.656c4.557 0 8.264 3.707 8.264 8.264 0 1.17-.24 2.3-.714 3.358a8.229 8.229 0 0 1-1.509 2.275l-6.041 7.083-6.026-7.068a8.19 8.19 0 0 1-1.524-2.292 8.14 8.14 0 0 1-.714-3.356c0-4.557 3.707-8.264 8.264-8.264M2.622 16.525l6.528 7.57a.685.685 0 0 0 .974 0l6.543-7.586a9.61 9.61 0 0 0 1.775-2.67 9.493 9.493 0 0 0 .834-3.919c0-5.314-4.323-9.64-9.64-9.64C4.32.28-.002 4.605-.002 9.92c0 1.367.28 2.686.832 3.92a9.68 9.68 0 0 0 1.793 2.685"/>
        <path d="M9.637 7.165a2.76 2.76 0 0 1 2.755 2.756 2.756 2.756 0 0 1-5.51 0 2.76 2.76 0 0 1 2.755-2.756m0 6.887a4.139 4.139 0 0 0 4.133-4.133c0-2.28-1.856-4.131-4.133-4.131A4.139 4.139 0 0 0 5.504 9.92c0 2.28 1.856 4.13 4.133 4.13"/>
    </g>
</svg>
