<svg xmlns="http://www.w3.org/2000/svg" width="25" height="26" viewBox="0 0 25 26">
    <g fill="#FFF" fill-rule="evenodd">
        <path d="M12.776.72C6.034.72.569 6.184.569 12.926c0 6.743 5.465 12.207 12.207 12.207 6.742 0 12.207-5.464 12.207-12.207C24.983 6.184 19.518.72 12.776.72m0 1.22c6.059 0 10.986 4.928 10.986 10.986 0 6.06-4.927 10.987-10.986 10.987-6.059 0-10.986-4.928-10.986-10.987C1.79 6.868 6.717 1.94 12.776 1.94"/>
        <path d="M15.052 6.324a1.33 1.33 0 1 1-2.66.001 1.33 1.33 0 0 1 2.66-.001M12.96 19.12c.361 0 .705.006 1.047-.003.145-.004.187.06.204.245.032.372-.068.583-.348.762-.727.464-1.486.72-2.301.735-.588.01-1.168-.397-1.046-1.365.122-.97.285-1.931.45-2.891.278-1.612.57-3.219.856-4.828.016-.096.022-.191.035-.313-.285-.08-.556-.161-.83-.228-.13-.033-.245-.061-.22-.275.024-.216-.096-.502.195-.584.633-.179 1.264-.378 1.9-.535.352-.087.714-.118 1.075-.16.392-.047.533.148.453.612l-1.47 8.685c-.005.03 0 .063 0 .142"/>
    </g>
</svg>
